<?xml version="1.0" encoding="UTF-8" standalone="no"?>
<svg
   width="680"
   height="512"
   viewBox="0 0 680 512"
   version="1.1"
   xml:space="preserve"
   style="clip-rule:evenodd;fill-rule:evenodd;stroke-linejoin:round;stroke-miterlimit:2"
   id="svg3"
   sodipodi:docname="logo_version.svg"
   inkscape:version="1.3 (0e150ed6c4, 2023-07-21)"
   inkscape:export-filename="logo_version.svg"
   inkscape:export-xdpi="95.974899"
   inkscape:export-ydpi="95.974899"
   xmlns:inkscape="http://www.inkscape.org/namespaces/inkscape"
   xmlns:sodipodi="http://sodipodi.sourceforge.net/DTD/sodipodi-0.dtd"
   xmlns="http://www.w3.org/2000/svg"
   xmlns:svg="http://www.w3.org/2000/svg"><defs
     id="defs3"><rect
       x="264.60931"
       y="396.74313"
       width="473.43848"
       height="111.46476"
       id="rect5" /><rect
       x="266.47073"
       y="397.00598"
       width="374.19354"
       height="97.514931"
       id="rect4" /></defs><sodipodi:namedview
     id="namedview3"
     pagecolor="#ffffff"
     bordercolor="#000000"
     borderopacity="0.25"
     inkscape:showpageshadow="2"
     inkscape:pageopacity="0.0"
     inkscape:pagecheckerboard="0"
     inkscape:deskcolor="#d1d1d1"
     inkscape:zoom="1.1559539"
     inkscape:cx="408.75334"
     inkscape:cy="292.83176"
     inkscape:window-width="1920"
     inkscape:window-height="1043"
     inkscape:window-x="0"
     inkscape:window-y="0"
     inkscape:window-maximized="1"
     inkscape:current-layer="svg3" /><g
     id="g1"
     inkscape:export-filename="logo_version.svg"
     inkscape:export-xdpi="95.974899"
     inkscape:export-ydpi="95.974899"><path
       d="m 448.178,179.017 c 1.406,0 2.755,0.559 3.748,1.553 0.994,0.994 1.553,2.342 1.553,3.748 V 361.9 c 0,7.73 3.07,15.144 8.537,20.611 5.466,5.466 12.879,8.536 20.609,8.536 h 0.003 c 7.731,0 15.144,-3.07 20.61,-8.536 5.466,-5.467 8.537,-12.881 8.537,-20.611 V 147.224 c 0,-14.637 -11.866,-26.503 -26.503,-26.503 H 419.01 c -7.73,0 -15.144,3.071 -20.61,8.537 -5.467,5.466 -8.537,12.88 -8.537,20.609 v 0.004 c 0,7.73 3.07,15.143 8.537,20.61 5.466,5.466 12.88,8.536 20.61,8.536 z"
       style="fill:#4f46e5"
       id="path1" /></g><g
     id="g2"><path
       d="m 279.199,391.051 c -22.039,0 -41.349,-5.639 -57.929,-16.918 -16.581,-11.279 -29.506,-27.082 -38.775,-47.41 -9.268,-20.327 -13.903,-44 -13.903,-71.02 0,-27.268 4.583,-51.004 13.749,-71.207 9.166,-20.203 22.09,-35.882 38.774,-47.037 16.684,-11.156 36.045,-16.733 58.084,-16.733 22.039,0 41.349,5.577 57.93,16.733 16.58,11.155 29.505,26.834 38.774,47.037 9.269,20.203 13.903,43.939 13.903,71.207 0,27.02 -4.634,50.693 -13.903,71.02 -9.269,20.328 -22.194,36.131 -38.774,47.41 -16.581,11.279 -35.891,16.918 -57.93,16.918 z m 0,-57.263 c 16.066,0 28.682,-6.879 37.847,-20.637 9.166,-13.758 13.749,-32.907 13.749,-57.448 0,-24.542 -4.531,-43.629 -13.594,-57.263 -9.063,-13.634 -21.73,-20.451 -38.002,-20.451 -16.272,0 -28.939,6.817 -38.002,20.451 -9.062,13.634 -13.594,32.721 -13.594,57.263 0,24.541 4.532,43.69 13.594,57.448 9.063,13.758 21.73,20.637 38.002,20.637 z"
       style="fill:#4f46e5;fill-rule:nonzero"
       id="path2" /></g><g
     id="g3"><path
       d="m 231.646,501.538 c 9.719,5.815 21.816,5.955 31.668,0.368 9.852,-5.589 15.941,-16.041 15.941,-27.368 0,-8.587 -3.558,-16.79 -9.829,-22.656 -34.925,-32.65 -152.778,-143.01 -187.36,-177.712 -10.254,-10.29 -10.239,-26.94 0.033,-37.211 0,0 147.495,-139.119 187.337,-176.699 6.267,-5.91 9.819,-14.144 9.819,-22.757 V 37.5 c 0,-11.332 -6.088,-21.791 -15.941,-27.389 -9.854,-5.598 -21.955,-5.471 -31.689,0.332 -8.133,4.849 -15.633,10.687 -22.327,17.381 l -37.115,37.114 c -0.937,0.938 -2.209,1.465 -3.535,1.465 -1.326,0 -2.598,-0.527 -3.535,-1.465 C 153.669,53.493 118.369,18.195 118.369,18.195 112.937,12.762 105.568,9.711 97.886,9.711 c -7.683,0 -15.051,3.051 -20.483,8.484 -11.314,11.313 -11.314,29.655 0,40.968 0,0 35.298,35.298 46.742,46.742 0.938,0.939 1.464,2.21 1.464,3.536 0,1.327 -0.526,2.598 -1.464,3.536 -5.28,5.279 -15.166,15.165 -20.445,20.445 -0.938,0.938 -2.209,1.464 -3.536,1.464 -1.326,0 -2.597,-0.526 -3.535,-1.464 C 85.184,121.977 49.885,86.677 49.885,86.677 38.572,75.365 20.231,75.365 8.92,86.677 8.919,86.678 8.919,86.678 8.918,86.678 3.485,92.112 0.434,99.479 0.434,107.163 c 0,7.682 3.051,15.051 8.484,20.483 0,0 35.298,35.299 46.743,46.744 1.952,1.952 1.952,5.118 0,7.07 -9.271,9.271 -33.568,33.569 -33.568,33.569 -22.626,22.626 -22.626,59.31 0,81.935 0,0 24.041,24.042 33.256,33.256 1.953,1.953 1.953,5.119 0,7.072 C 43.92,348.72 8.71,383.93 8.71,383.93 c -5.432,5.432 -8.484,12.801 -8.484,20.483 0,7.684 3.052,15.051 8.484,20.485 11.314,11.312 29.656,11.312 40.968,0 0,0 35.21,-35.21 46.638,-46.639 0.938,-0.938 2.21,-1.465 3.537,-1.465 1.325,0 2.597,0.527 3.535,1.465 5.343,5.342 15.414,15.415 20.757,20.758 1.953,1.952 1.953,5.118 0,7.07 -11.428,11.429 -46.638,46.638 -46.638,46.638 -5.433,5.434 -8.485,12.801 -8.485,20.485 0,7.682 3.052,15.051 8.485,20.483 11.312,11.314 29.654,11.314 40.968,0 0,0 35.21,-35.21 46.638,-46.638 0.937,-0.937 2.209,-1.464 3.535,-1.464 1.326,0 2.598,0.527 3.535,1.464 l 36.868,36.868 c 6.779,6.779 14.368,12.695 22.594,17.615 z"
       style="fill:#4f46e5"
       id="path3" /></g><rect
     style="fill:#c2410c;fill-opacity:1;stroke:#bb0000;stroke-width:1.43922;stroke-opacity:0"
     id="rect3"
     width="551.25861"
     height="138.25108"
     x="126.969"
     y="371.70953"
     ry="69.125542" /><path
     style="font-weight:bold;font-size:80px;font-family:Cantarell;-inkscape-font-specification:'Cantarell Bold';text-align:center;text-anchor:middle;white-space:pre;fill:#ffffff;stroke:#bb0000;stroke-width:1.41563;stroke-opacity:0"
     d="m 161.26937,480.54639 h 14.60925 v -25.25477 h 9.85275 c 19.47901,0 32.38952,-10.98524 32.38952,-27.74626 0,-15.74175 -11.55151,-25.59451 -29.89801,-25.59451 h -26.95351 z m 14.60925,-37.93877 v -27.85951 h 10.98525 c 9.62626,0 16.19476,5.889 16.19476,14.60925 0,8.49376 -5.436,13.25026 -14.7225,13.25026 z m 54.24674,37.93877 h 14.60927 v -29.33176 h 12.79725 c 0.11325,0 0.33975,0 0.453,0 l 16.761,29.33176 h 17.55377 l -19.70551,-32.38952 c 9.17325,-4.30349 14.7225,-12.79725 14.7225,-23.3295 0,-14.49602 -10.53225,-22.87652 -27.85951,-22.87652 h -29.33177 z m 14.60927,-41.67602 v -24.23551 h 12.79725 c 9.17325,0 14.60926,4.64325 14.60926,12.4575 0,7.36126 -4.53001,11.77801 -12.68401,11.77801 z m 58.55025,41.67602 h 53.00103 v -12.79726 h -38.39176 v -21.06451 h 35.22076 v -12.79725 h -35.22076 v -19.13926 h 38.39176 v -12.79726 h -53.00103 z m 87.54222,0 h 15.17552 l 28.31251,-78.59554 h -14.94901 l -20.27175,61.26828 -19.47901,-61.26828 h -16.98752 z m 53.11421,0 h 14.83575 v -78.59554 h -14.83575 z m 33.18219,0 h 53.00102 v -12.79726 h -38.39177 v -21.06451 h 35.22076 v -12.79725 h -35.22076 v -19.13926 h 38.39177 V 401.95085 H 477.1235 Z m 82.67245,0 h 15.51526 l 17.10076,-59.34303 18.45975,59.34303 h 15.17551 l 22.87651,-78.59554 h -14.72251 l -15.402,59.22978 -17.55376,-58.77678 h -16.0815 l -16.98752,60.02253 -14.949,-60.47553 h -16.64776 z"
     id="text4"
     aria-label="PREVIEW" /></svg>
