<?xml version="1.0" encoding="UTF-8" standalone="no"?>
<!DOCTYPE svg PUBLIC "-//W3C//DTD SVG 1.1//EN" "http://www.w3.org/Graphics/SVG/1.1/DTD/svg11.dtd">
<svg width="100%" height="100%" viewBox="0 0 512 500" version="1.1"
    xmlns="http://www.w3.org/2000/svg"
    xmlns:xlink="http://www.w3.org/1999/xlink" xml:space="preserve"
    xmlns:serif="http://www.serif.com/" style="fill-rule:evenodd;clip-rule:evenodd;stroke-linejoin:round;stroke-miterlimit:2;">
    <g transform="matrix(1.0601,0,0,1.0601,-282.557,-261.025)">
        <path d="M689.308,409.435C690.634,409.435 691.906,409.962 692.843,410.9C693.781,411.838 694.308,413.109 694.308,414.435C694.308,437.421 694.308,533.867 694.308,581.95C694.308,589.242 697.204,596.235 702.361,601.392C707.517,606.548 714.51,609.444 721.802,609.444C721.803,609.444 721.804,609.444 721.805,609.444C729.097,609.444 736.09,606.548 741.246,601.392C746.402,596.235 749.299,589.242 749.299,581.95C749.299,532.077 749.299,427.424 749.299,379.444C749.299,365.637 738.106,354.444 724.299,354.444L661.793,354.444C654.501,354.444 647.508,357.341 642.352,362.497C637.195,367.653 634.299,374.647 634.299,381.938C634.299,381.939 634.299,381.94 634.299,381.941C634.299,389.233 637.195,396.226 642.352,401.383C647.508,406.539 654.501,409.435 661.793,409.435C672.275,409.435 683.168,409.435 689.308,409.435Z" style="fill:#4f46e5;"/>
    </g>
    <g transform="matrix(25.7465,0,0,30.9864,-14240.9,-3900.12)">
        <path d="M563.964,138.292C563.108,138.292 562.358,138.11 561.714,137.746C561.07,137.382 560.568,136.872 560.208,136.216C559.848,135.56 559.668,134.796 559.668,133.924C559.668,133.044 559.846,132.278 560.202,131.626C560.558,130.974 561.06,130.468 561.708,130.108C562.356,129.748 563.108,129.568 563.964,129.568C564.82,129.568 565.57,129.748 566.214,130.108C566.858,130.468 567.36,130.974 567.72,131.626C568.08,132.278 568.26,133.044 568.26,133.924C568.26,134.796 568.08,135.56 567.72,136.216C567.36,136.872 566.858,137.382 566.214,137.746C565.57,138.11 564.82,138.292 563.964,138.292ZM563.964,136.444C564.588,136.444 565.078,136.222 565.434,135.778C565.79,135.334 565.968,134.716 565.968,133.924C565.968,133.132 565.792,132.516 565.44,132.076C565.088,131.636 564.596,131.416 563.964,131.416C563.332,131.416 562.84,131.636 562.488,132.076C562.136,132.516 561.96,133.132 561.96,133.924C561.96,134.716 562.136,135.334 562.488,135.778C562.84,136.222 563.332,136.444 563.964,136.444Z" style="fill:#4f46e5;fill-rule:nonzero;"/>
    </g>
    <g transform="matrix(1.0534,0,0,1.0534,-281.79,-224.146)">
        <path d="M487.408,683.201C496.635,688.721 508.118,688.854 517.471,683.55C526.824,678.245 532.604,668.323 532.604,657.57L532.604,657.57C532.604,649.418 529.226,641.631 523.273,636.062C490.119,605.067 378.24,500.302 345.411,467.359C335.677,457.591 335.691,441.785 345.442,432.034C345.442,432.034 485.46,299.968 523.283,264.293C529.232,258.682 532.604,250.866 532.604,242.689C532.604,242.688 532.604,242.688 532.604,242.687C532.604,231.929 526.825,222 517.471,216.686C508.117,211.372 496.629,211.492 487.388,217.001C487.388,217.001 487.388,217.001 487.388,217.001C479.668,221.604 472.548,227.146 466.193,233.501L430.96,268.734C430.07,269.624 428.863,270.124 427.604,270.124C426.345,270.124 425.138,269.624 424.248,268.734C413.384,257.869 379.874,224.36 379.874,224.36C374.717,219.203 367.722,216.306 360.429,216.306C353.136,216.306 346.141,219.203 340.984,224.36C340.984,224.36 340.984,224.36 340.984,224.36C330.244,235.1 330.244,252.512 340.984,263.251C340.984,263.251 374.493,296.76 385.357,307.624C386.247,308.515 386.747,309.722 386.747,310.981C386.747,312.24 386.247,313.447 385.357,314.337C380.345,319.349 370.96,328.734 365.948,333.746C365.058,334.636 363.851,335.136 362.592,335.136C361.333,335.136 360.126,334.636 359.236,333.746C348.371,322.881 314.861,289.371 314.861,289.371C304.122,278.632 286.711,278.632 275.973,289.371C275.972,289.372 275.972,289.372 275.971,289.372C270.814,294.53 267.917,301.524 267.917,308.818C267.917,316.111 270.814,323.106 275.971,328.263C275.971,328.263 309.48,361.772 320.345,372.637C322.198,374.49 322.198,377.496 320.345,379.349C311.544,388.15 288.478,411.216 288.478,411.216C266.999,432.695 266.999,467.519 288.478,488.998C288.478,488.998 311.301,511.821 320.048,520.568C321.902,522.422 321.902,525.427 320.048,527.281C309.199,538.13 275.774,571.555 275.774,571.555C270.617,576.712 267.72,583.707 267.72,591C267.72,598.294 270.617,605.288 275.774,610.446C275.774,610.446 275.774,610.446 275.774,610.446C286.514,621.185 303.926,621.185 314.665,610.446C314.665,610.446 348.09,577.021 358.939,566.171C359.829,565.281 361.037,564.781 362.296,564.781C363.554,564.781 364.762,565.281 365.652,566.171C370.724,571.243 380.285,580.805 385.357,585.877C387.211,587.73 387.211,590.736 385.357,592.589C374.508,603.438 341.083,636.863 341.083,636.863C335.926,642.021 333.028,649.015 333.028,656.309C333.028,663.602 335.926,670.597 341.083,675.754C341.083,675.754 341.083,675.754 341.083,675.754C351.822,686.494 369.234,686.494 379.974,675.754C379.974,675.754 413.399,642.329 424.248,631.48C425.138,630.59 426.345,630.09 427.604,630.09C428.863,630.09 430.07,630.59 430.96,631.48L465.959,666.479C472.394,672.914 479.598,678.53 487.407,683.201C487.407,683.201 487.407,683.201 487.408,683.201Z" style="fill:#4f46e5;"/>
    </g>
</svg>
