<?xml version="1.0" encoding="UTF-8" standalone="no"?><!DOCTYPE svg PUBLIC "-//W3C//DTD SVG 1.1//EN" "http://www.w3.org/Graphics/SVG/1.1/DTD/svg11.dtd"><svg width="100%" height="100%" viewBox="0 0 512 512" version="1.1" xmlns="http://www.w3.org/2000/svg" xmlns:xlink="http://www.w3.org/1999/xlink" xml:space="preserve" xmlns:serif="http://www.serif.com/" style="fill-rule:evenodd;clip-rule:evenodd;stroke-linejoin:round;stroke-miterlimit:2;"><g><path d="M448.178,179.017c1.406,0 2.755,0.559 3.748,1.553c0.994,0.994 1.553,2.342 1.553,3.748l-0,177.582c-0,7.73 3.07,15.144 8.537,20.611c5.466,5.466 12.879,8.536 20.609,8.536l0.003,-0c7.731,-0 15.144,-3.07 20.61,-8.536c5.466,-5.467 8.537,-12.881 8.537,-20.611l-0,-214.676c-0,-14.637 -11.866,-26.503 -26.503,-26.503l-66.262,0c-7.73,0 -15.144,3.071 -20.61,8.537c-5.467,5.466 -8.537,12.88 -8.537,20.609l0,0.004c0,7.73 3.07,15.143 8.537,20.61c5.466,5.466 12.88,8.536 20.61,8.536l29.168,0Z" style="fill:#4f46e5;"/></g><g><path d="M279.199,391.051c-22.039,0 -41.349,-5.639 -57.929,-16.918c-16.581,-11.279 -29.506,-27.082 -38.775,-47.41c-9.268,-20.327 -13.903,-44 -13.903,-71.02c0,-27.268 4.583,-51.004 13.749,-71.207c9.166,-20.203 22.09,-35.882 38.774,-47.037c16.684,-11.156 36.045,-16.733 58.084,-16.733c22.039,-0 41.349,5.577 57.93,16.733c16.58,11.155 29.505,26.834 38.774,47.037c9.269,20.203 13.903,43.939 13.903,71.207c0,27.02 -4.634,50.693 -13.903,71.02c-9.269,20.328 -22.194,36.131 -38.774,47.41c-16.581,11.279 -35.891,16.918 -57.93,16.918Zm0,-57.263c16.066,0 28.682,-6.879 37.847,-20.637c9.166,-13.758 13.749,-32.907 13.749,-57.448c0,-24.542 -4.531,-43.629 -13.594,-57.263c-9.063,-13.634 -21.73,-20.451 -38.002,-20.451c-16.272,-0 -28.939,6.817 -38.002,20.451c-9.062,13.634 -13.594,32.721 -13.594,57.263c0,24.541 4.532,43.69 13.594,57.448c9.063,13.758 21.73,20.637 38.002,20.637Z" style="fill:#4f46e5;fill-rule:nonzero;"/></g><g><path d="M231.646,501.538c9.719,5.815 21.816,5.955 31.668,0.368c9.852,-5.589 15.941,-16.041 15.941,-27.368c0,-8.587 -3.558,-16.79 -9.829,-22.656c-34.925,-32.65 -152.778,-143.01 -187.36,-177.712c-10.254,-10.29 -10.239,-26.94 0.033,-37.211c-0,-0 147.495,-139.119 187.337,-176.699c6.267,-5.91 9.819,-14.144 9.819,-22.757l0,-0.003c0,-11.332 -6.088,-21.791 -15.941,-27.389c-9.854,-5.598 -21.955,-5.471 -31.689,0.332c-8.133,4.849 -15.633,10.687 -22.327,17.381l-37.115,37.114c-0.937,0.938 -2.209,1.465 -3.535,1.465c-1.326,-0 -2.598,-0.527 -3.535,-1.465c-11.444,-11.445 -46.744,-46.743 -46.744,-46.743c-5.432,-5.433 -12.801,-8.484 -20.483,-8.484c-7.683,-0 -15.051,3.051 -20.483,8.484c-11.314,11.313 -11.314,29.655 -0,40.968c-0,-0 35.298,35.298 46.742,46.742c0.938,0.939 1.464,2.21 1.464,3.536c0,1.327 -0.526,2.598 -1.464,3.536c-5.28,5.279 -15.166,15.165 -20.445,20.445c-0.938,0.938 -2.209,1.464 -3.536,1.464c-1.326,0 -2.597,-0.526 -3.535,-1.464c-11.445,-11.445 -46.744,-46.745 -46.744,-46.745c-11.313,-11.312 -29.654,-11.312 -40.965,0c-0.001,0.001 -0.001,0.001 -0.002,0.001c-5.433,5.434 -8.484,12.801 -8.484,20.485c-0,7.682 3.051,15.051 8.484,20.483c-0,0 35.298,35.299 46.743,46.744c1.952,1.952 1.952,5.118 0,7.07c-9.271,9.271 -33.568,33.569 -33.568,33.569c-22.626,22.626 -22.626,59.31 -0,81.935c-0,0 24.041,24.042 33.256,33.256c1.953,1.953 1.953,5.119 -0,7.072c-11.429,11.428 -46.639,46.638 -46.639,46.638c-5.432,5.432 -8.484,12.801 -8.484,20.483c0,7.684 3.052,15.051 8.484,20.485c11.314,11.312 29.656,11.312 40.968,-0c0,-0 35.21,-35.21 46.638,-46.639c0.938,-0.938 2.21,-1.465 3.537,-1.465c1.325,0 2.597,0.527 3.535,1.465c5.343,5.342 15.414,15.415 20.757,20.758c1.953,1.952 1.953,5.118 0,7.07c-11.428,11.429 -46.638,46.638 -46.638,46.638c-5.433,5.434 -8.485,12.801 -8.485,20.485c-0,7.682 3.052,15.051 8.485,20.483c11.312,11.314 29.654,11.314 40.968,0c-0,0 35.21,-35.21 46.638,-46.638c0.937,-0.937 2.209,-1.464 3.535,-1.464c1.326,-0 2.598,0.527 3.535,1.464l36.868,36.868c6.779,6.779 14.368,12.695 22.594,17.615l0.001,-0Z" style="fill:#4f46e5;"/></g></svg>